<svg xmlns="http://www.w3.org/2000/svg" viewBox="0 0 400 260" width="400" height="260"><rect width="400" height="260" fill="#17173A"/>
<defs><pattern id="d" width="16" height="16" patternUnits="userSpaceOnUse"><circle cx="2" cy="2" r="1" fill="rgba(242,169,59,.14)"/></pattern>
<radialGradient id="g" cx="80%" cy="10%" r="70%"><stop offset="0" stop-color="rgba(242,169,59,.28)"/><stop offset="1" stop-color="rgba(242,169,59,0)"/></radialGradient></defs>
<rect width="400" height="260" fill="url(#d)"/><rect width="400" height="260" fill="url(#g)"/>
<line stroke="#F2A93B" stroke-opacity=".35" stroke-width="2" stroke-dasharray="6 8"/>
<rect x="92" y="186" width="150" height="32" rx="16" fill="#23235A" stroke="#F2A93B" stroke-width="3.5" stroke-linejoin="round"/>
<circle cx="110" cy="202" r="9" fill="none" stroke="#F2A93B" stroke-width="3.5" stroke-linecap="round" stroke-linejoin="round"/><circle cx="140" cy="202" r="6" fill="none" stroke="#F2A93B" stroke-width="3.5" stroke-linecap="round" stroke-linejoin="round"/><circle cx="167" cy="202" r="6" fill="none" stroke="#F2A93B" stroke-width="3.5" stroke-linecap="round" stroke-linejoin="round"/><circle cx="194" cy="202" r="6" fill="none" stroke="#F2A93B" stroke-width="3.5" stroke-linecap="round" stroke-linejoin="round"/><circle cx="224" cy="202" r="9" fill="none" stroke="#F2A93B" stroke-width="3.5" stroke-linecap="round" stroke-linejoin="round"/>
<path d="M104 186 V156 H214 V186" fill="#23235A" stroke="#F2A93B" stroke-width="3.5" stroke-linejoin="round"/>
<path d="M150 156 V112 H200 L214 132 V156" fill="#23235A" stroke="#F2A93B" stroke-width="3.5" stroke-linejoin="round"/>
<path d="M160 120 H196 L205 134 H160 Z" fill="rgba(242,169,59,.18)" stroke="#F2A93B" stroke-width="2.5" stroke-linejoin="round"/>
<path d="M214 150 L268 84 L318 120" fill="none" stroke="#F2A93B" stroke-width="9" stroke-linecap="round" stroke-linejoin="round"/>
<path d="M214 150 L268 84 L318 120" fill="none" stroke="#23235A" stroke-width="3" stroke-linecap="round"/>
<path d="M318 120 L336 170 L300 176 Q296 150 318 120 Z" fill="#23235A" stroke="#F2A93B" stroke-width="3.5" stroke-linejoin="round"/>
<path d="M303 176 l-4 10 M314 175 l-2 11 M325 173 l0 11" fill="none" stroke="#F2A93B" stroke-width="3" stroke-linecap="round" stroke-linejoin="round"/>
<circle cx="268" cy="84" r="6" fill="#F2A93B"/></svg>