<svg xmlns="http://www.w3.org/2000/svg" viewBox="0 0 400 260" width="400" height="260"><rect width="400" height="260" fill="#17173A"/>
<defs><pattern id="d" width="16" height="16" patternUnits="userSpaceOnUse"><circle cx="2" cy="2" r="1" fill="rgba(242,169,59,.14)"/></pattern>
<radialGradient id="g" cx="80%" cy="10%" r="70%"><stop offset="0" stop-color="rgba(242,169,59,.28)"/><stop offset="1" stop-color="rgba(242,169,59,0)"/></radialGradient></defs>
<rect width="400" height="260" fill="url(#d)"/><rect width="400" height="260" fill="url(#g)"/>
<line stroke="#F2A93B" stroke-opacity=".35" stroke-width="2" stroke-dasharray="6 8"/>
<rect x="40" y="170" width="250" height="26" rx="13" fill="#23235A" stroke="#F2A93B" stroke-width="3.5" stroke-linejoin="round"/>
<circle cx="58" cy="183" r="7" fill="none" stroke="#F2A93B" stroke-width="3.5" stroke-linecap="round" stroke-linejoin="round"/><circle cx="104" cy="183" r="7" fill="none" stroke="#F2A93B" stroke-width="3.5" stroke-linecap="round" stroke-linejoin="round"/><circle cx="150" cy="183" r="7" fill="none" stroke="#F2A93B" stroke-width="3.5" stroke-linecap="round" stroke-linejoin="round"/><circle cx="196" cy="183" r="7" fill="none" stroke="#F2A93B" stroke-width="3.5" stroke-linecap="round" stroke-linejoin="round"/><circle cx="242" cy="183" r="7" fill="none" stroke="#F2A93B" stroke-width="3.5" stroke-linecap="round" stroke-linejoin="round"/><circle cx="272" cy="183" r="7" fill="none" stroke="#F2A93B" stroke-width="3.5" stroke-linecap="round" stroke-linejoin="round"/>
<path d="M70 196 V222 M260 196 V222" fill="none" stroke="#F2A93B" stroke-width="3.5" stroke-linecap="round" stroke-linejoin="round"/>
<rect x="66" y="138" width="34" height="32" rx="3" fill="#23235A" stroke="#F2A93B" stroke-width="3.5" stroke-linejoin="round"/><path d="M66 150 H100" fill="none" stroke="#F2A93B" stroke-width="2.5" stroke-linecap="round" stroke-linejoin="round"/>
<rect x="132" y="138" width="34" height="32" rx="3" fill="#23235A" stroke="#F2A93B" stroke-width="3.5" stroke-linejoin="round"/><path d="M132 150 H166" fill="none" stroke="#F2A93B" stroke-width="2.5" stroke-linecap="round" stroke-linejoin="round"/>
<rect x="306" y="196" width="48" height="26" rx="4" fill="#23235A" stroke="#F2A93B" stroke-width="3.5" stroke-linejoin="round"/>
<path d="M330 196 V150 L286 104 L236 122" fill="none" stroke="#F2A93B" stroke-width="10" stroke-linecap="round" stroke-linejoin="round"/>
<path d="M330 196 V150 L286 104 L236 122" fill="none" stroke="#23235A" stroke-width="3.5" stroke-linecap="round"/>
<circle cx="330" cy="150" r="8" fill="#23235A" stroke="#F2A93B" stroke-width="3.5" stroke-linejoin="round"/><circle cx="286" cy="104" r="8" fill="#23235A" stroke="#F2A93B" stroke-width="3.5" stroke-linejoin="round"/>
<path d="M236 122 L226 136 M236 122 L222 118" fill="none" stroke="#F2A93B" stroke-width="3.5" stroke-linecap="round" stroke-linejoin="round"/>
<rect x="206" y="138" width="34" height="32" rx="3" fill="rgba(242,169,59,.25)" stroke="#F2A93B" stroke-width="3.5"/></svg>